<?xml version="1.0" standalone="no"?>
<!DOCTYPE svg PUBLIC "-//W3C//DTD SVG 20010904//EN"
 "http://www.w3.org/TR/2001/REC-SVG-20010904/DTD/svg10.dtd">
<svg version="1.0" xmlns="http://www.w3.org/2000/svg"
 width="512.000000pt" height="512.000000pt" viewBox="0 0 512.000000 512.000000"
 preserveAspectRatio="xMidYMid meet">
<metadata>
Created by potrace 1.14, written by Peter Selinger 2001-2017
</metadata>
<g transform="translate(0.000000,512.000000) scale(0.100000,-0.100000)"
fill="#000000" stroke="none">
<path d="M2435 5099 c-103 -35 -201 -124 -242 -219 -16 -39 -21 -57 -29 -115
-4 -22 -7 -41 -8 -42 -1 -1 -78 -3 -171 -3 -183 -2 -218 -10 -270 -62 -46 -46
-55 -89 -55 -260 0 -189 12 -226 83 -259 40 -18 77 -19 820 -19 751 0 779 1
816 19 72 37 76 52 76 261 0 211 -6 230 -87 286 l-41 29 -184 3 c-180 4 -183
4 -184 25 -2 49 -12 85 -41 150 -81 176 -297 268 -483 206z"/>
<path d="M345 4505 c-88 -22 -148 -56 -210 -119 -33 -34 -71 -83 -84 -109 -53
-110 -51 -10 -51 -2017 0 -1170 4 -1881 10 -1907 36 -154 157 -283 315 -335
33 -11 444 -13 2245 -13 l2205 0 76 36 c121 58 201 145 245 264 18 48 19 129
21 1935 3 2050 6 1939 -52 2041 -58 105 -148 180 -261 217 -55 19 -89 20 -551
21 l-493 1 0 -142 c-1 -170 -5 -207 -33 -273 -58 -139 -179 -243 -320 -275
-32 -7 -317 -10 -854 -10 l-806 0 -75 26 c-144 48 -238 141 -291 289 -16 47
-19 79 -20 238 l-1 147 -482 -1 c-358 0 -496 -4 -533 -14z m828 -1206 c35 -18
57 -51 57 -87 0 -73 -43 -102 -150 -102 l-70 0 0 -360 c0 -386 -2 -400 -51
-426 -52 -27 -115 -8 -137 41 -9 18 -12 128 -12 385 l0 360 -71 0 c-107 0
-153 33 -146 107 4 42 16 60 52 81 27 16 498 16 528 1z m732 -14 c237 -82 378
-317 336 -560 -41 -231 -237 -403 -471 -411 -149 -5 -263 39 -369 145 -170
168 -198 423 -70 623 64 99 203 196 312 217 67 13 206 6 262 -14z m1202 4
c188 -64 293 -241 289 -487 -4 -228 -102 -392 -276 -463 -47 -19 -79 -23 -219
-27 -186 -5 -221 4 -240 61 -16 43 -15 851 0 880 30 54 41 57 224 56 135 -1
180 -5 222 -20z m1052 4 c163 -49 291 -170 346 -328 23 -66 28 -204 9 -275
-51 -190 -206 -336 -393 -370 -167 -30 -318 18 -441 139 -274 270 -151 727
225 835 61 17 195 17 254 -1z m-2614 -1491 c38 -29 64 -78 64 -117 1 -54 -33
-112 -79 -135 -39 -20 -52 -21 -383 -18 -342 3 -342 3 -373 27 -89 66 -80 200
15 251 34 18 57 19 381 17 345 -2 346 -2 375 -25z m2787 6 c45 -26 78 -80 78
-129 0 -46 -39 -108 -82 -130 -36 -18 -77 -19 -1169 -19 l-1132 0 -42 25 c-30
17 -47 36 -59 65 -22 56 -20 86 9 135 47 80 -48 75 1224 75 l1133 0 40 -22z
m-2789 -602 c32 -22 67 -84 67 -119 0 -33 -20 -88 -39 -108 -45 -47 -61 -49
-411 -49 -352 0 -365 2 -412 51 -30 31 -44 103 -29 146 16 43 25 54 72 83 33
20 44 20 379 18 320 -3 347 -4 373 -22z m2802 -4 c88 -69 83 -193 -10 -247
l-42 -25 -1130 0 c-980 0 -1135 2 -1166 15 -43 18 -87 86 -87 134 0 49 35 108
78 130 36 20 58 20 1182 18 l1145 -2 30 -23z"/>
<path d="M1655 3092 c-65 -22 -109 -54 -146 -105 -88 -121 -74 -285 32 -388
188 -183 497 -58 508 207 4 90 -57 206 -132 253 -84 51 -175 63 -262 33z"/>
<path d="M2850 2810 l0 -300 80 0 c90 0 139 16 183 58 55 52 77 112 82 228 6
117 -21 203 -83 261 -43 41 -86 53 -184 53 l-78 0 0 -300z"/>
<path d="M3956 3102 c-4 -3 -13 -7 -21 -8 -28 -4 -103 -54 -131 -86 -42 -51
-67 -116 -70 -186 -8 -167 118 -303 285 -308 315 -11 428 409 150 561 -44 23
-67 29 -130 31 -43 1 -80 0 -83 -4z"/>
</g>
</svg>
